<svg xmlns="http://www.w3.org/2000/svg" viewBox="0 0 1200 900" fill="none">
  <g stroke="#2DD4BF" stroke-opacity="0.5" stroke-width="1.4">
    <path d="M180 120 360 220 540 160 720 250 900 190 1100 280"/>
    <path d="M120 380 300 460 480 400 660 490 840 430 1040 520 1180 460"/>
    <path d="M220 640 400 720 580 660 760 750 940 690 1140 780"/>
    <path d="M360 220 300 460 480 400 540 160"/>
    <path d="M720 250 660 490 840 430 900 190"/>
    <path d="M400 720 300 460"/>
    <path d="M760 750 660 490"/>
    <path d="M1040 520 940 690"/>
    <path d="M60 840 220 640"/>
    <path d="M1100 280 1040 520"/>
  </g>
  <g fill="#2DD4BF">
    <circle cx="180" cy="120" r="7"/>
    <circle cx="360" cy="220" r="5"/>
    <circle cx="540" cy="160" r="8" fill-opacity="0.8"/>
    <circle cx="720" cy="250" r="5"/>
    <circle cx="900" cy="190" r="7"/>
    <circle cx="1100" cy="280" r="6"/>
    <circle cx="120" cy="380" r="6"/>
    <circle cx="300" cy="460" r="8" fill-opacity="0.8"/>
    <circle cx="480" cy="400" r="5"/>
    <circle cx="660" cy="490" r="9" fill-opacity="0.9"/>
    <circle cx="840" cy="430" r="5"/>
    <circle cx="1040" cy="520" r="7"/>
    <circle cx="1180" cy="460" r="5"/>
    <circle cx="220" cy="640" r="7"/>
    <circle cx="400" cy="720" r="5"/>
    <circle cx="580" cy="660" r="8" fill-opacity="0.8"/>
    <circle cx="760" cy="750" r="5"/>
    <circle cx="940" cy="690" r="7"/>
    <circle cx="1140" cy="780" r="6"/>
    <circle cx="60" cy="840" r="5"/>
  </g>
  <g stroke="#2DD4BF" stroke-opacity="0.55" stroke-width="1.4" fill="none">
    <circle cx="660" cy="490" r="22"/>
    <circle cx="660" cy="490" r="38" stroke-opacity="0.3"/>
    <circle cx="540" cy="160" r="20"/>
    <circle cx="300" cy="460" r="18"/>
    <circle cx="580" cy="660" r="24"/>
    <circle cx="1100" cy="280" r="17"/>
  </g>
</svg>
