<svg xmlns="http://www.w3.org/2000/svg" viewBox="0 0 1200 630" width="1200" height="630" role="img" aria-labelledby="logo-title logo-desc"><title id="logo-title">LPS — Laboratório de Processamento de Sinais</title><desc id="logo-desc">Blue waveform, LPS lettering, Laboratório de Processamento de Sinais, and Inteligência Computacional. Vectorized from the supplied logo; all lettering is outlined.</desc><defs><linearGradient id="wave-gradient" gradientUnits="userSpaceOnUse" x1="120" y1="0" x2="916" y2="0" color-interpolation="sRGB">
      <stop offset="0.00000" stop-color="#0661c1" stop-opacity="0.450" />
      <stop offset="0.01256" stop-color="#0661c1" stop-opacity="0.633" />
      <stop offset="0.03141" stop-color="#0661c1" stop-opacity="0.908" />
      <stop offset="0.05025" stop-color="#055fbc" stop-opacity="1.000" />
      <stop offset="0.06910" stop-color="#045bb3" stop-opacity="1.000" />
      <stop offset="0.07538" stop-color="#055db5" stop-opacity="1.000" />
      <stop offset="0.09548" stop-color="#0666bd" stop-opacity="1.000" />
      <stop offset="0.11558" stop-color="#066ec5" stop-opacity="1.000" />
      <stop offset="0.13568" stop-color="#0676cb" stop-opacity="1.000" />
      <stop offset="0.15578" stop-color="#0681d3" stop-opacity="1.000" />
      <stop offset="0.17588" stop-color="#068bd8" stop-opacity="1.000" />
      <stop offset="0.19598" stop-color="#0593df" stop-opacity="1.000" />
      <stop offset="0.21608" stop-color="#039be6" stop-opacity="1.000" />
      <stop offset="0.23618" stop-color="#039fe7" stop-opacity="1.000" />
      <stop offset="0.25628" stop-color="#0497e4" stop-opacity="1.000" />
      <stop offset="0.27638" stop-color="#0489d8" stop-opacity="1.000" />
      <stop offset="0.29648" stop-color="#0678ca" stop-opacity="1.000" />
      <stop offset="0.31658" stop-color="#0761b7" stop-opacity="1.000" />
      <stop offset="0.33668" stop-color="#074ca5" stop-opacity="1.000" />
      <stop offset="0.35678" stop-color="#074ca3" stop-opacity="1.000" />
      <stop offset="0.37688" stop-color="#0652a8" stop-opacity="1.000" />
      <stop offset="0.39698" stop-color="#075bb1" stop-opacity="1.000" />
      <stop offset="0.41709" stop-color="#0763b8" stop-opacity="1.000" />
      <stop offset="0.43719" stop-color="#076cbf" stop-opacity="1.000" />
      <stop offset="0.45729" stop-color="#0773c6" stop-opacity="1.000" />
      <stop offset="0.47739" stop-color="#0777ca" stop-opacity="1.000" />
      <stop offset="0.49749" stop-color="#0778cc" stop-opacity="1.000" />
      <stop offset="0.51759" stop-color="#067dd0" stop-opacity="1.000" />
      <stop offset="0.53769" stop-color="#0496e2" stop-opacity="1.000" />
      <stop offset="0.55779" stop-color="#049de7" stop-opacity="1.000" />
      <stop offset="0.57789" stop-color="#0493e1" stop-opacity="1.000" />
      <stop offset="0.59799" stop-color="#058ddc" stop-opacity="1.000" />
      <stop offset="0.61809" stop-color="#0589d9" stop-opacity="1.000" />
      <stop offset="0.63819" stop-color="#0686d6" stop-opacity="1.000" />
      <stop offset="0.65829" stop-color="#0782d3" stop-opacity="1.000" />
      <stop offset="0.67839" stop-color="#077dce" stop-opacity="1.000" />
      <stop offset="0.69849" stop-color="#0677c9" stop-opacity="1.000" />
      <stop offset="0.71859" stop-color="#0579cb" stop-opacity="1.000" />
      <stop offset="0.73869" stop-color="#0486d5" stop-opacity="1.000" />
      <stop offset="0.75879" stop-color="#0290dd" stop-opacity="1.000" />
      <stop offset="0.77889" stop-color="#0298e4" stop-opacity="1.000" />
      <stop offset="0.79899" stop-color="#0199e4" stop-opacity="1.000" />
      <stop offset="0.81910" stop-color="#0298e4" stop-opacity="1.000" />
      <stop offset="0.83920" stop-color="#0299e4" stop-opacity="1.000" />
      <stop offset="0.85930" stop-color="#039ee6" stop-opacity="1.000" />
      <stop offset="0.87940" stop-color="#02a7f0" stop-opacity="1.000" />
      <stop offset="0.89950" stop-color="#01b5f4" stop-opacity="1.000" />
      <stop offset="0.91960" stop-color="#03c4fb" stop-opacity="1.000" />
      <stop offset="0.93970" stop-color="#0ad0fc" stop-opacity="1.000" />
      <stop offset="0.95980" stop-color="#0ed3fd" stop-opacity="0.780" />
      <stop offset="0.97487" stop-color="#0ed3fd" stop-opacity="0.488" />
      <stop offset="0.98744" stop-color="#0ed3fd" stop-opacity="0.244" />
      <stop offset="1.00000" stop-color="#0ed3fd" stop-opacity="0.000" />
    </linearGradient><linearGradient id="baseline-gradient" gradientUnits="userSpaceOnUse" x1="72" y1="0" x2="952" y2="0">
      <stop offset="0" stop-color="#08bef2" stop-opacity="0" />
      <stop offset="0.075" stop-color="#08bef2" stop-opacity="0.95" />
      <stop offset="0.24" stop-color="#04bdf0" stop-opacity="1" />
      <stop offset="0.65" stop-color="#04c3f4" stop-opacity="1" />
      <stop offset="0.9" stop-color="#04b9f2" stop-opacity="1" />
      <stop offset="1" stop-color="#04b9f2" stop-opacity="0" />
    </linearGradient><linearGradient id="lps-gradient" gradientUnits="userSpaceOnUse" x1="1015" y1="295" x2="1365" y2="466">
      <stop offset="0" stop-color="#0b4c92" />
      <stop offset="0.5" stop-color="#0a4b91" />
      <stop offset="1" stop-color="#0a4a8e" />
    </linearGradient></defs><rect width="1200" height="630" fill="#F7F4EC"/><g id="lps-logo" fill-rule="evenodd" transform="translate(87 239.75) scale(0.5) translate(-48 -190)"><path id="reference-line" d="M72 411.8H952" fill="none" stroke="url(#baseline-gradient)" stroke-width="6.5"/><path id="waveform" d="M303.51,466.46C300.66,466.19 296.99,465.29 294.48,464.24C293.46,463.82 292.23,463.32 291.74,463.14C288.76,462.03 282.85,458.54 278.88,455.53C275.68,453.11 266.33,443.80 263.03,439.75C261.64,438.03 257.36,432.74 253.54,428.00C245.97,418.62 239.80,411.86 233.50,406.10C227.53,400.62 224.90,399.19 217.12,397.22L213.12,396.21 207.25,396.31C202.25,396.40 201.02,396.50 199.00,396.99C193.00,398.42 186.34,400.59 181.25,402.75C180.36,403.13 178.72,403.63 177.62,403.86C176.53,404.09 174.11,404.60 172.25,405.00C168.70,405.76 164.15,406.72 160.38,407.49C159.14,407.75 157.28,408.09 156.25,408.25C155.22,408.41 153.64,408.69 152.75,408.87C148.33,409.77 135.94,411.34 130.04,411.74C126.61,411.97 118.43,412.05 120.88,411.82C122.00,411.72 126.66,411.09 128.75,410.77C134.44,409.87 149.96,404.73 155.12,402.03C159.27,399.87 166.68,395.10 171.50,391.50C174.07,389.58 179.89,385.64 183.82,383.16C194.15,376.64 208.09,372.81 218.12,373.73C235.45,375.31 248.67,384.83 266.75,408.75C276.96,422.25 281.73,428.03 286.98,433.25C299.64,445.84 310.56,447.56 322.12,438.79C337.61,427.04 351.81,401.34 370.14,351.88C380.26,324.56 383.13,317.00 387.71,305.62C391.58,296.01 394.20,289.97 399.24,279.03C404.30,268.05 411.94,253.91 416.50,247.12C417.15,246.16 418.13,244.63 418.68,243.72C422.78,236.94 432.92,225.43 438.38,221.33C456.13,208.03 474.92,209.13 490.13,224.37C493.63,227.87 499.42,235.29 501.75,239.25C502.19,240.01 502.76,240.91 503.00,241.25C503.90,242.53 509.33,252.89 511.15,256.81C512.19,259.05 513.58,262.06 514.25,263.50C519.38,274.55 527.39,297.25 536.13,325.50C545.22,354.87 550.47,367.06 555.66,370.87C561.50,375.16 567.03,372.84 574.42,363.00C583.46,350.97 590.00,343.43 594.12,340.29C594.95,339.67 596.15,338.68 596.80,338.11C599.19,335.99 604.28,333.05 608.03,331.63C617.83,327.91 625.85,327.99 636.88,331.94C650.53,336.83 664.32,349.45 681.75,373.00C687.55,380.83 689.13,383.01 690.84,385.50C696.61,393.90 706.67,407.21 711.15,412.38C723.11,426.13 728.91,431.31 736.73,435.24C743.70,438.74 752.82,439.24 760.06,436.51C763.00,435.41 769.86,432.05 772.18,430.59C775.71,428.36 778.87,426.21 782.05,423.88C783.94,422.50 786.84,420.42 788.50,419.25C790.16,418.08 792.66,416.29 794.07,415.26C803.08,408.69 811.82,403.43 816.75,401.61C817.23,401.43 818.58,400.88 819.75,400.38C820.92,399.87 823.00,399.09 824.38,398.64C826.69,397.87 827.62,397.64 832.56,396.63C838.18,395.47 851.88,395.39 857.25,396.48C857.87,396.60 859.22,396.84 860.25,397.00C862.44,397.33 873.44,400.09 877.25,401.25C878.69,401.69 885.22,403.44 891.75,405.13C898.28,406.82 904.98,408.60 906.62,409.08C908.27,409.57 910.75,410.29 912.12,410.69C917.34,412.21 917.59,412.15 905.75,412.33C878.68,412.76 854.13,414.66 835.81,417.74C832.39,418.31 831.31,418.49 829.88,418.73C827.91,419.05 825.74,419.47 823.82,419.90C822.97,420.09 821.96,420.25 821.57,420.25C819.75,420.26 814.28,423.77 809.50,428.00C808.47,428.91 807.06,430.08 806.38,430.60C805.69,431.12 803.72,432.82 802.00,434.37C800.28,435.93 798.54,437.47 798.12,437.78C797.71,438.10 796.46,439.15 795.34,440.12C791.54,443.40 790.63,444.15 788.12,446.03C779.56,452.45 772.98,455.83 762.88,458.99C750.60,462.83 733.21,460.46 721.12,453.30C707.58,445.28 697.24,434.61 677.67,408.50C670.35,398.74 662.41,388.57 657.85,383.12C656.93,382.02 653.80,378.75 650.90,375.86C639.74,364.70 631.53,360.25 622.15,360.25C613.80,360.25 604.94,366.15 594.24,378.84C593.22,380.06 591.75,381.81 590.98,382.72C583.15,392.00 573.01,398.95 565.75,400.00C555.70,401.46 547.07,398.35 539.14,390.42C529.00,380.28 524.23,370.33 514.45,338.88C512.66,333.10 510.07,324.77 508.70,320.38C499.23,289.85 492.53,273.48 484.66,261.62C478.29,252.01 471.02,246.69 464.25,246.70C452.77,246.70 442.14,257.73 426.86,285.50C420.14,297.71 408.49,324.29 399.75,347.37C397.97,352.06 391.40,368.53 388.42,375.75C368.58,423.81 349.06,451.59 327.57,462.35C320.19,466.04 312.67,467.33 303.51,466.46Z" fill="url(#wave-gradient)"/><path id="separator" d="M974.6 286.5V461.5" fill="none" stroke="#00b9f2" stroke-width="6"/><path id="lps-lettering" d="M1299.88,458.50C1287.31,458.08 1265.03,455.62 1263.93,454.53C1263.50,454.11 1263.50,453.39 1263.77,439.36C1263.92,431.16 1264.15,424.50 1264.28,424.34C1264.43,424.16 1266.45,424.01 1270.19,423.91C1287.76,423.43 1287.63,423.43 1291.67,423.84C1302.78,424.96 1305.35,425.12 1311.25,425.12C1317.74,425.12 1317.83,425.11 1321.88,423.70C1330.55,420.67 1334.13,414.22 1330.37,408.40C1328.16,404.97 1325.26,403.21 1305.25,393.16C1290.02,385.51 1287.12,383.87 1279.75,378.72C1267.90,370.45 1261.26,357.90 1261.25,343.75C1261.23,324.62 1269.91,310.79 1287.45,302.02C1294.65,298.42 1304.78,296.18 1315.25,295.86C1323.98,295.59 1343.93,296.40 1349.31,297.23C1350.17,297.37 1352.28,297.60 1354.00,297.75C1355.72,297.91 1357.58,298.13 1358.12,298.25C1358.67,298.37 1360.14,298.60 1361.38,298.75C1362.61,298.90 1364.47,299.18 1365.50,299.37C1366.53,299.56 1368.48,299.92 1369.83,300.16C1371.18,300.40 1372.46,300.73 1372.68,300.88C1373.12,301.20 1373.11,300.47 1372.75,315.62C1372.62,320.99 1372.51,326.48 1372.51,327.82C1372.50,331.86 1372.51,331.85 1360.62,331.78C1356.36,331.75 1350.85,331.57 1348.38,331.38C1345.90,331.18 1340.95,330.90 1337.38,330.76C1333.80,330.61 1330.53,330.43 1330.11,330.37C1329.69,330.30 1327.50,330.36 1325.24,330.49C1316.44,331.03 1310.42,333.61 1307.68,338.04C1306.76,339.53 1306.76,342.83 1307.69,344.80C1309.83,349.34 1312.77,351.27 1331.12,360.25C1335.11,362.20 1339.89,364.54 1341.75,365.45C1343.61,366.36 1346.22,367.76 1347.57,368.55C1348.91,369.35 1350.06,370.00 1350.12,370.00C1350.50,370.00 1356.25,373.85 1358.45,375.57C1366.53,381.89 1371.53,388.55 1374.38,396.78C1378.13,407.64 1377.18,421.66 1371.98,431.86C1365.08,445.40 1350.67,455.02 1333.25,457.72C1327.85,458.56 1312.35,458.92 1299.88,458.50ZM1060.85,457.48C1042.99,456.19 1029.14,447.11 1023.33,432.86C1021.89,429.35 1021.20,426.74 1020.60,422.62C1020.09,419.08 1019.77,297.70 1020.28,297.09C1020.67,296.62 1059.48,296.58 1059.95,297.05C1060.18,297.28 1060.25,310.22 1060.25,353.74L1060.26,410.12 1060.85,412.88C1062.05,418.43 1063.89,421.04 1068.10,423.09C1072.40,425.19 1071.03,425.08 1096.54,425.24C1109.01,425.31 1119.30,425.47 1119.42,425.58C1119.53,425.70 1119.66,432.80 1119.70,441.37L1119.78,456.95 1119.21,457.35C1118.58,457.79 1066.78,457.91 1060.85,457.48ZM1129.19,457.44C1128.59,456.98 1128.42,297.37 1129.01,296.98C1129.24,296.83 1142.62,296.78 1165.12,296.83C1203.87,296.93 1203.46,296.92 1210.75,298.36C1216.08,299.42 1219.89,300.60 1224.75,302.72C1228.46,304.34 1228.28,304.25 1233.87,307.58C1236.28,309.01 1242.73,315.06 1244.98,318.00C1248.08,322.03 1250.65,326.85 1252.12,331.38C1253.26,334.85 1253.76,337.26 1254.51,342.75C1254.89,345.49 1254.79,355.66 1254.36,359.45C1253.75,364.78 1252.66,369.23 1250.87,373.74C1245.84,386.41 1233.67,397.34 1220.00,401.47C1210.45,404.35 1206.01,404.77 1185.04,404.77C1172.74,404.78 1170.54,404.83 1170.06,405.15L1169.49,405.52 1169.50,431.32C1169.51,455.43 1169.49,457.14 1169.08,457.44C1168.46,457.89 1129.79,457.89 1129.19,457.44ZM1196.65,372.23C1205.53,370.52 1210.80,365.81 1212.36,358.20C1213.02,354.93 1212.91,347.52 1212.13,344.33C1210.90,339.24 1207.55,334.79 1203.38,332.70C1198.70,330.36 1197.77,330.25 1182.71,330.25C1171.75,330.25 1170.24,330.30 1169.89,330.64C1169.29,331.24 1169.29,371.76 1169.89,372.36C1170.57,373.04 1193.02,372.93 1196.65,372.23Z" fill="url(#lps-gradient)"/><path id="laboratory-name" d="M1487.38,401.84C1480.61,400.92 1475.37,396.66 1473.57,390.62C1472.49,387.00 1473.03,380.95 1474.71,378.00C1477.84,372.47 1482.09,369.95 1488.38,369.90C1496.52,369.84 1501.78,374.12 1503.62,382.33C1505.20,389.37 1502.13,396.64 1496.21,399.86C1493.63,401.27 1489.68,402.15 1487.38,401.84ZM1490.63,395.61C1497.45,393.84 1499.82,384.28 1494.87,378.55C1492.55,375.87 1487.89,375.03 1484.62,376.69C1476.60,380.78 1478.46,394.26 1487.25,395.75C1488.93,396.04 1489.02,396.03 1490.63,395.61ZM1520.14,401.60C1513.75,400.18 1509.59,396.07 1508.13,389.75C1507.13,385.40 1508.16,379.27 1510.41,376.20C1515.07,369.85 1523.51,368.02 1530.75,371.78C1531.94,372.40 1534.75,374.96 1534.75,375.43C1534.75,375.91 1531.12,379.00 1530.55,379.00C1530.37,379.00 1529.69,378.57 1529.04,378.04C1526.68,376.10 1526.18,375.91 1523.39,375.89C1521.07,375.88 1520.77,375.94 1519.50,376.62C1515.03,379.04 1513.21,384.27 1514.99,389.62C1517.08,395.90 1523.67,397.77 1529.06,393.61C1530.88,392.21 1530.97,392.21 1532.90,393.91C1535.03,395.78 1535.03,396.20 1532.95,398.13C1529.72,401.12 1524.42,402.56 1520.14,401.60ZM1550.22,401.53C1541.46,399.43 1536.48,390.42 1538.95,381.10C1540.23,376.24 1543.94,372.12 1548.50,370.49C1550.94,369.62 1555.93,369.62 1558.25,370.48C1562.22,371.96 1565.48,375.24 1567.12,379.38C1567.87,381.26 1568.36,387.24 1567.82,387.78C1567.66,387.94 1563.66,388.02 1557.17,388.01C1551.45,388.00 1546.49,388.06 1546.15,388.14C1545.36,388.34 1545.18,388.83 1545.49,389.97C1546.33,393.07 1549.52,395.51 1553.28,395.91C1555.43,396.14 1559.65,394.71 1560.76,393.36C1561.41,392.59 1562.41,392.93 1564.12,394.53C1566.02,396.31 1566.05,396.43 1564.81,397.64C1561.29,401.09 1555.16,402.72 1550.22,401.53ZM1560.95,381.84C1561.11,380.20 1559.49,377.85 1557.31,376.57C1555.45,375.48 1551.47,375.53 1549.50,376.67C1546.85,378.20 1544.66,381.58 1545.67,382.59C1545.76,382.68 1549.22,382.73 1553.36,382.69L1560.88,382.62 1560.95,381.84ZM1582.38,401.76C1578.62,401.17 1575.66,399.95 1573.54,398.09C1571.88,396.63 1571.90,396.29 1573.81,394.49C1575.64,392.76 1575.90,392.72 1577.62,393.86C1581.96,396.74 1587.44,396.79 1589.40,393.97C1590.13,392.91 1590.09,392.18 1589.23,390.97C1588.56,390.03 1587.63,389.60 1584.14,388.60C1579.00,387.14 1577.26,386.36 1575.35,384.68C1571.60,381.38 1572.35,374.81 1576.83,371.80C1581.38,368.73 1589.29,369.36 1593.71,373.15C1595.08,374.32 1595.03,374.61 1593.18,376.44C1591.34,378.27 1591.33,378.27 1589.56,377.09C1584.76,373.91 1577.84,375.82 1579.88,379.76C1580.46,380.88 1581.66,381.42 1586.88,382.89C1587.56,383.09 1588.35,383.35 1588.62,383.47C1592.99,385.47 1594.02,386.23 1595.30,388.44C1596.10,389.83 1596.12,389.97 1596.12,392.62C1596.12,395.86 1595.91,396.40 1593.82,398.44C1591.17,401.03 1586.45,402.40 1582.38,401.76ZM1609.75,401.82C1605.90,401.42 1602.89,400.30 1600.44,398.35C1598.63,396.92 1598.63,396.60 1600.40,394.59C1602.07,392.69 1602.63,392.58 1604.27,393.86C1607.79,396.58 1613.66,396.72 1615.71,394.12C1616.77,392.77 1616.29,390.86 1614.65,389.91C1613.68,389.36 1612.71,389.03 1608.25,387.73C1604.08,386.52 1601.49,384.75 1600.34,382.33C1599.42,380.38 1599.55,376.51 1600.60,374.69C1603.92,368.96 1613.94,368.02 1620.31,372.83C1621.57,373.79 1621.51,374.28 1619.87,376.15C1618.10,378.16 1617.88,378.22 1616.22,377.13C1613.10,375.07 1608.87,374.95 1607.02,376.86C1605.96,377.94 1605.78,379.15 1606.51,380.08C1606.99,380.69 1609.33,382.01 1609.92,382.00C1610.88,381.98 1616.75,384.15 1618.50,385.16C1625.74,389.37 1623.53,399.18 1614.86,401.33C1613.16,401.75 1611.03,401.96 1609.75,401.82ZM1633.88,401.59C1629.47,400.66 1626.87,398.38 1625.78,394.47C1623.47,386.25 1630.93,380.51 1642.31,381.74C1645.46,382.08 1645.98,381.96 1645.59,381.00C1645.51,380.79 1645.32,380.18 1645.18,379.62C1644.54,377.20 1642.94,376.04 1639.91,375.83C1636.89,375.62 1632.83,376.62 1632.13,377.74C1631.64,378.53 1630.61,377.98 1629.31,376.23C1627.75,374.12 1627.73,374.00 1628.94,373.07C1631.60,371.01 1634.21,370.06 1637.81,369.84C1645.18,369.40 1650.14,372.50 1651.58,378.45C1652.16,380.84 1652.22,400.51 1651.65,400.98C1651.42,401.17 1650.41,401.24 1648.71,401.20L1646.12,401.12 1646.05,400.05C1645.95,398.66 1645.51,398.51 1644.32,399.43C1641.52,401.61 1637.71,402.40 1633.88,401.59ZM1641.59,395.33C1645.14,393.54 1646.91,389.87 1645.18,387.87C1644.63,387.22 1644.54,387.21 1640.75,387.07C1635.60,386.89 1634.00,387.37 1632.55,389.51C1631.78,390.64 1631.86,392.75 1632.72,393.96C1634.24,396.09 1638.69,396.78 1641.59,395.33ZM1939.50,401.83C1933.53,400.86 1929.28,398.52 1926.83,394.83C1926.33,394.07 1926.66,393.55 1928.52,392.13C1931.07,390.19 1930.98,390.19 1932.88,391.97C1939.06,397.74 1950.05,396.61 1950.88,390.11C1951.29,386.96 1949.14,384.91 1944.00,383.52C1942.83,383.20 1941.15,382.73 1940.27,382.47C1939.39,382.21 1938.54,382.00 1938.39,382.00C1938.23,382.00 1937.15,381.60 1935.99,381.11C1934.83,380.62 1933.71,380.15 1933.50,380.06C1932.75,379.76 1930.32,377.77 1929.68,376.93C1926.61,372.89 1926.90,366.54 1930.32,362.82C1934.99,357.76 1943.63,356.65 1950.74,360.20C1953.21,361.43 1956.25,364.03 1956.25,364.91C1956.25,365.15 1955.43,366.16 1954.42,367.17C1952.13,369.45 1951.81,369.49 1950.17,367.62C1944.91,361.62 1932.87,364.35 1934.52,371.16C1935.14,373.70 1936.96,374.75 1943.75,376.47C1953.52,378.96 1957.24,382.28 1957.67,388.90C1958.07,394.93 1953.54,400.00 1946.41,401.51C1944.33,401.95 1941.15,402.10 1939.50,401.83ZM2018.62,401.85C2014.35,400.83 2012.50,399.80 2010.99,397.62C2007.92,393.15 2008.75,387.71 2013.01,384.48C2015.83,382.34 2017.68,381.90 2023.98,381.89C2030.01,381.87 2029.69,382.00 2029.24,379.84C2028.57,376.61 2025.26,374.97 2020.96,375.74C2019.22,376.05 2016.19,377.25 2015.88,377.74C2015.49,378.37 2014.55,377.97 2013.48,376.71C2011.18,374.01 2011.23,373.86 2015.25,371.46C2018.20,369.71 2025.49,369.21 2028.66,370.54C2031.96,371.94 2034.24,374.34 2035.33,377.59C2035.81,379.03 2035.85,379.81 2035.94,389.83C2036.01,397.82 2035.95,400.63 2035.73,400.89C2035.52,401.16 2034.82,401.25 2033.11,401.25C2030.15,401.25 2030.00,401.19 2030.00,399.97C2030.00,398.56 2029.51,398.51 2027.70,399.72C2026.86,400.29 2025.71,400.87 2025.15,401.01C2024.58,401.15 2023.87,401.37 2023.56,401.50C2022.91,401.78 2019.36,402.03 2018.62,401.85ZM2025.64,395.28C2028.70,393.84 2029.90,392.01 2029.58,389.30C2029.37,387.51 2029.13,387.33 2026.63,387.12C2021.25,386.67 2018.50,387.21 2016.78,389.04C2014.97,390.98 2015.88,394.26 2018.60,395.61C2020.03,396.31 2023.83,396.14 2025.64,395.28ZM2064.00,401.50C2060.65,400.77 2058.50,399.69 2056.31,397.64C2054.92,396.33 2054.96,396.05 2056.81,394.40C2058.62,392.78 2059.05,392.71 2060.62,393.77C2063.63,395.80 2068.27,396.64 2070.42,395.54C2072.94,394.25 2073.50,392.14 2071.77,390.49C2070.78,389.54 2070.61,389.48 2064.00,387.46C2061.13,386.58 2059.46,385.68 2057.97,384.24C2056.24,382.55 2055.90,381.54 2056.05,378.50C2056.45,370.07 2068.03,366.87 2076.69,372.80C2078.05,373.73 2078.03,374.05 2076.42,376.14C2075.04,377.95 2074.31,378.34 2073.54,377.69C2069.74,374.48 2062.50,375.14 2062.50,378.70C2062.50,380.07 2064.54,381.63 2067.00,382.13C2067.48,382.23 2068.18,382.47 2068.55,382.66C2068.92,382.84 2069.47,383.00 2069.76,383.00C2070.97,383.00 2075.48,385.29 2076.71,386.53C2078.68,388.51 2079.12,389.54 2079.12,392.13C2079.12,399.00 2072.20,403.29 2064.00,401.50ZM1719.88,401.27C1716.56,400.42 1714.05,398.81 1711.99,396.20C1709.63,393.22 1708.73,390.41 1708.68,385.89C1708.59,378.31 1712.05,372.93 1718.55,370.56C1721.12,369.63 1726.02,369.59 1728.50,370.49C1734.21,372.57 1737.68,377.91 1737.82,384.84C1737.87,387.55 1737.86,387.61 1737.27,387.91C1736.80,388.14 1734.25,388.19 1726.73,388.11C1716.24,387.99 1715.50,388.05 1715.51,389.06C1715.51,389.80 1716.31,391.53 1717.16,392.64C1718.69,394.66 1722.34,396.21 1724.84,395.91C1726.87,395.67 1730.32,394.15 1730.87,393.26C1731.34,392.49 1732.64,393.00 1734.19,394.57C1735.05,395.43 1735.75,396.26 1735.75,396.41C1735.75,396.56 1735.16,397.24 1734.43,397.93C1731.01,401.16 1724.93,402.56 1719.88,401.27ZM1731.19,382.42C1732.05,381.56 1729.69,377.97 1727.36,376.60C1725.43,375.47 1721.75,375.51 1719.70,376.70C1717.04,378.24 1714.86,381.97 1716.18,382.72C1716.95,383.15 1730.73,382.88 1731.19,382.42ZM1782.50,401.39C1780.24,400.77 1778.78,399.49 1777.47,397.00C1776.88,395.88 1776.87,395.81 1776.80,386.26C1776.75,380.14 1776.63,376.53 1776.46,376.33C1776.32,376.16 1775.48,375.99 1774.54,375.95L1772.88,375.88 1772.80,373.41C1772.72,370.42 1772.82,370.25 1774.73,370.25C1776.73,370.25 1776.75,370.21 1776.75,366.09C1776.75,363.51 1776.84,362.48 1777.06,362.33C1777.65,361.97 1782.40,361.96 1782.71,362.33C1782.88,362.53 1783.01,364.13 1783.06,366.39L1783.12,370.12 1786.23,370.20C1788.00,370.24 1789.48,370.38 1789.67,370.54C1789.90,370.73 1790.00,371.52 1790.00,373.12C1790.00,374.73 1789.90,375.52 1789.67,375.71C1789.48,375.87 1788.00,376.01 1786.23,376.05L1783.12,376.12 1783.06,384.73C1782.99,393.29 1783.00,393.34 1783.55,394.15C1784.49,395.52 1785.97,395.84 1788.35,395.20C1789.86,394.80 1790.13,395.08 1790.47,397.39C1790.86,400.04 1790.83,400.44 1790.20,400.77C1788.52,401.68 1784.64,401.99 1782.50,401.39ZM1805.00,401.26C1798.92,399.58 1794.73,395.23 1793.63,389.45C1791.99,380.78 1796.25,372.84 1803.79,370.54C1807.04,369.54 1811.71,369.60 1814.18,370.66C1815.07,371.04 1815.41,371.20 1816.62,371.86C1819.71,373.51 1822.09,376.49 1823.54,380.50C1824.49,383.15 1824.39,389.18 1823.35,391.62C1821.01,397.11 1817.81,400.06 1812.81,401.36C1810.80,401.88 1807.09,401.83 1805.00,401.26ZM1811.71,395.36C1819.42,392.84 1820.02,380.52 1812.63,376.65C1810.76,375.68 1806.99,375.69 1805.04,376.68C1797.72,380.38 1798.35,392.65 1806.00,395.32C1807.47,395.83 1810.22,395.85 1811.71,395.36ZM1853.12,401.27C1846.47,399.28 1842.76,394.30 1842.32,386.74C1841.95,380.41 1844.95,374.41 1849.87,371.67C1854.51,369.08 1860.93,369.29 1864.42,372.15C1865.42,372.97 1865.98,373.20 1866.02,372.81C1866.03,372.71 1866.08,369.23 1866.12,365.08C1866.16,360.93 1866.27,357.42 1866.36,357.27C1866.62,356.85 1872.12,356.91 1872.47,357.33C1872.87,357.82 1872.88,400.42 1872.47,400.91C1871.96,401.53 1866.59,401.39 1866.25,400.74C1866.10,400.47 1866.05,400.12 1866.14,399.98C1866.38,399.59 1866.03,398.50 1865.67,398.50C1865.49,398.50 1864.90,398.88 1864.36,399.34C1861.69,401.62 1856.99,402.42 1853.12,401.27ZM1860.60,395.22C1862.46,394.50 1864.73,392.42 1865.61,390.63C1866.58,388.64 1866.48,382.90 1865.44,380.87C1864.62,379.26 1862.98,377.62 1861.38,376.82C1859.88,376.06 1856.39,375.75 1854.90,376.24C1848.12,378.48 1846.79,390.09 1852.84,394.22C1855.15,395.79 1858.10,396.17 1860.60,395.22ZM1889.25,401.27C1882.07,399.32 1877.80,393.49 1877.76,385.58C1877.72,378.82 1881.90,372.76 1888.11,370.56C1890.63,369.67 1895.34,369.64 1897.74,370.50C1902.07,372.05 1905.24,375.40 1906.78,380.06C1907.37,381.84 1907.71,387.11 1907.27,387.75C1907.06,388.07 1905.41,388.14 1895.95,388.25C1884.91,388.37 1884.87,388.38 1884.80,388.90C1884.66,389.87 1885.99,392.19 1887.46,393.54C1891.19,396.94 1895.88,396.86 1900.33,393.31C1901.35,392.50 1901.62,392.58 1903.40,394.29C1905.45,396.26 1905.45,396.57 1903.44,398.23C1899.63,401.36 1894.02,402.56 1889.25,401.27ZM1900.19,382.62C1900.94,382.37 1899.80,379.15 1898.44,377.71C1896.20,375.33 1891.38,375.09 1888.27,377.20C1886.03,378.72 1884.30,381.87 1885.30,382.60C1885.66,382.86 1899.43,382.88 1900.19,382.62ZM1418.02,400.79C1417.65,400.09 1417.65,359.55 1418.03,359.09C1418.37,358.67 1437.41,358.60 1439.19,359.01C1448.57,361.17 1451.98,373.07 1445.29,380.30C1443.94,381.76 1443.24,382.22 1440.50,383.49C1439.13,384.12 1439.10,384.12 1431.96,384.12C1428.02,384.12 1424.71,384.21 1424.60,384.32C1424.49,384.42 1424.36,388.14 1424.31,392.57C1424.24,397.60 1424.11,400.74 1423.95,400.94C1423.49,401.49 1418.33,401.36 1418.02,400.79ZM1438.00,377.36C1440.85,376.04 1441.87,374.42 1441.87,371.25C1441.86,369.32 1441.79,369.01 1441.10,367.88C1440.19,366.37 1438.58,365.23 1437.02,364.97C1434.87,364.61 1425.40,364.71 1424.88,365.09C1424.44,365.41 1424.41,365.83 1424.44,371.37C1424.47,375.46 1424.57,377.41 1424.77,377.65C1425.00,377.93 1426.19,378.00 1430.84,378.00C1436.51,378.00 1436.65,377.98 1438.00,377.36ZM1454.11,400.94C1454.05,400.77 1454.02,393.82 1454.06,385.50L1454.12,370.38 1456.81,370.30C1460.19,370.21 1460.50,370.36 1460.50,372.01C1460.50,373.55 1461.10,373.70 1462.10,372.39C1463.25,370.88 1465.52,369.97 1468.12,369.98C1471.08,369.99 1471.10,370.01 1470.93,373.07C1470.76,376.20 1470.71,376.25 1468.09,376.25C1464.77,376.25 1462.58,377.63 1461.09,380.67L1460.38,382.12 1460.31,391.48C1460.27,398.65 1460.18,400.89 1459.94,401.04C1459.40,401.39 1454.25,401.29 1454.11,400.94ZM1659.05,401.04C1658.71,400.82 1658.58,371.99 1658.92,371.07C1659.19,370.34 1659.51,370.26 1662.03,370.25C1664.69,370.25 1664.91,370.36 1665.04,371.73C1665.15,372.88 1665.46,372.91 1666.64,371.93C1668.04,370.75 1669.85,370.06 1672.04,369.86C1676.14,369.49 1679.07,370.61 1681.76,373.59L1682.65,374.58 1684.48,372.93C1686.87,370.78 1688.75,369.99 1691.89,369.81C1698.13,369.47 1702.27,372.48 1703.62,378.37C1704.05,380.23 1704.30,400.31 1703.90,400.95C1703.64,401.38 1698.15,401.36 1697.81,400.94C1697.65,400.74 1697.58,397.34 1697.63,391.38C1697.72,380.75 1697.60,379.66 1696.10,377.83C1693.57,374.75 1688.26,375.22 1686.03,378.72C1684.63,380.91 1684.50,382.02 1684.50,391.80C1684.50,398.35 1684.42,400.73 1684.20,400.95C1683.86,401.29 1679.08,401.37 1678.58,401.05C1678.35,400.91 1678.26,398.25 1678.20,390.74C1678.11,379.64 1678.09,379.50 1676.45,377.73C1673.88,374.98 1668.81,375.34 1666.67,378.44C1665.13,380.67 1665.15,380.51 1665.05,391.12C1664.98,398.15 1664.87,400.93 1664.66,401.06C1664.27,401.31 1659.45,401.29 1659.05,401.04ZM1743.05,400.95C1742.65,400.55 1742.61,371.47 1743.01,370.73C1743.24,370.31 1743.55,370.25 1745.76,370.25C1748.57,370.25 1749.25,370.59 1749.25,372.00C1749.25,372.99 1749.68,372.96 1751.11,371.88C1751.74,371.39 1752.34,371.00 1752.44,371.00C1752.54,371.00 1752.95,370.83 1753.35,370.62C1754.42,370.06 1757.40,369.67 1759.22,369.86C1763.95,370.34 1767.49,373.45 1768.77,378.26C1769.21,379.89 1769.40,400.39 1768.99,400.89C1768.60,401.36 1763.51,401.41 1763.05,400.95C1762.83,400.73 1762.75,398.14 1762.75,390.83C1762.75,381.50 1762.72,380.95 1762.23,379.70C1761.16,376.95 1759.54,375.89 1756.38,375.88C1753.80,375.87 1752.03,376.64 1750.68,378.36C1749.16,380.29 1749.13,380.46 1749.07,391.11C1749.02,398.63 1748.94,400.89 1748.69,401.04C1748.17,401.37 1743.39,401.29 1743.05,400.95ZM1963.94,400.98C1963.38,400.66 1963.25,371.10 1963.80,370.55C1964.00,370.35 1965.02,370.25 1966.75,370.25C1968.48,370.25 1969.50,370.35 1969.70,370.55C1969.93,370.78 1970.00,374.49 1970.00,385.75C1970.00,397.01 1969.93,400.72 1969.70,400.95C1969.33,401.32 1964.57,401.35 1963.94,400.98ZM1977.46,400.92C1977.19,400.66 1977.13,398.68 1977.17,391.11C1977.19,385.89 1977.22,379.24 1977.23,376.33C1977.25,369.90 1977.07,370.25 1980.41,370.25C1983.33,370.25 1983.75,370.44 1983.75,371.74C1983.75,373.06 1984.10,373.19 1985.15,372.26C1987.19,370.47 1989.03,369.88 1992.50,369.88C1996.58,369.89 1999.16,370.98 2001.27,373.58C2003.80,376.73 2003.97,377.77 2004.01,390.37C2004.03,396.07 2003.97,400.85 2003.88,400.99C2003.65,401.37 1998.43,401.33 1998.05,400.95C1997.83,400.73 1997.75,398.25 1997.75,391.34C1997.75,380.85 1997.59,379.77 1995.72,377.84C1993.25,375.30 1988.12,375.37 1985.66,377.98C1983.88,379.86 1983.88,379.84 1983.82,390.74C1983.79,396.17 1983.71,400.75 1983.64,400.93C1983.46,401.39 1977.92,401.38 1977.46,400.92ZM2043.29,401.03C2042.76,400.70 2042.72,370.83 2043.25,370.49C2043.74,370.19 2048.51,370.19 2049.00,370.49C2049.43,370.77 2049.59,400.34 2049.16,400.94C2048.90,401.30 2043.84,401.38 2043.29,401.03ZM2044.84,364.99C2042.45,364.26 2041.47,361.16 2042.97,359.09C2044.51,356.96 2047.89,357.01 2049.37,359.18C2051.39,362.16 2048.35,366.07 2044.84,364.99ZM1964.14,364.23C1961.25,361.69 1963.28,357.14 1967.11,357.59C1970.74,358.02 1971.95,362.30 1969.04,364.44C1967.79,365.36 1965.30,365.25 1964.14,364.23ZM1457.23,342.97C1447.42,341.71 1444.83,329.02 1453.49,324.63C1456.36,323.18 1463.96,322.37 1466.60,323.24C1468.39,323.83 1468.89,323.19 1468.26,321.08C1466.97,316.74 1460.61,315.53 1455.87,318.73C1454.32,319.77 1454.25,319.75 1452.52,317.69C1450.74,315.56 1450.70,315.29 1451.94,314.26C1455.37,311.41 1462.45,310.12 1466.73,311.55C1470.95,312.96 1473.45,315.40 1474.62,319.25C1475.14,320.93 1475.20,341.58 1474.70,342.19C1474.50,342.43 1473.74,342.50 1471.78,342.45L1469.12,342.38 1469.05,341.30C1468.95,339.90 1468.54,339.78 1467.17,340.72C1465.51,341.86 1463.34,342.74 1461.51,343.00C1459.67,343.27 1459.51,343.27 1457.23,342.97ZM1462.89,337.29C1466.82,336.26 1469.09,333.39 1468.54,330.13C1468.30,328.72 1467.69,328.50 1463.56,328.33C1460.75,328.21 1459.86,328.27 1458.67,328.62C1453.63,330.10 1453.40,335.58 1458.30,337.28C1459.98,337.86 1460.74,337.86 1462.89,337.29ZM1582.28,343.00C1581.07,342.82 1580.11,342.50 1578.25,341.66C1577.15,341.16 1575.08,338.88 1574.34,337.36C1573.28,335.17 1573.28,331.09 1574.33,328.91C1576.28,324.89 1580.41,322.96 1587.08,322.97C1588.86,322.98 1590.91,323.11 1591.64,323.27C1593.43,323.68 1593.75,323.51 1593.74,322.20C1593.74,320.95 1593.07,319.36 1592.22,318.57C1589.80,316.35 1584.22,316.41 1580.69,318.70C1579.43,319.52 1578.90,319.32 1577.31,317.38C1575.75,315.48 1575.73,315.29 1576.93,314.24C1579.98,311.55 1587.29,310.19 1591.75,311.46C1596.41,312.80 1599.27,315.92 1599.97,320.42C1600.34,322.80 1600.37,341.98 1600.01,342.34C1599.83,342.52 1598.83,342.59 1597.30,342.55C1594.71,342.47 1593.80,342.03 1594.12,341.00C1594.45,339.97 1593.56,339.90 1592.17,340.85C1589.62,342.61 1585.55,343.49 1582.28,343.00ZM1588.43,337.15C1590.21,336.67 1591.96,335.56 1592.95,334.26C1593.75,333.22 1593.77,333.13 1593.70,331.05L1593.62,328.91 1592.88,328.70C1590.98,328.15 1585.65,328.16 1583.85,328.70C1580.47,329.73 1579.04,332.49 1580.60,334.96C1582.01,337.20 1585.05,338.05 1588.43,337.15ZM1791.00,342.98C1785.03,342.39 1780.38,338.44 1778.33,332.25C1777.58,329.98 1777.67,323.14 1778.48,321.12C1781.13,314.54 1786.07,310.95 1792.50,310.91C1799.10,310.88 1804.65,315.36 1806.24,322.02C1806.86,324.59 1806.95,328.77 1806.40,329.23C1806.14,329.45 1803.24,329.51 1795.54,329.49C1789.76,329.47 1784.91,329.52 1784.77,329.61C1783.92,330.14 1785.15,332.85 1787.04,334.66C1790.49,337.96 1795.34,338.03 1799.81,334.85C1800.47,334.38 1801.16,334.00 1801.35,334.00C1801.78,334.00 1804.75,337.39 1804.75,337.88C1804.75,339.27 1798.96,342.55 1795.94,342.88C1793.34,343.16 1792.85,343.17 1791.00,342.98ZM1799.60,323.85C1800.71,323.42 1799.12,319.83 1797.21,318.46C1794.38,316.41 1790.24,316.52 1787.53,318.70C1785.62,320.25 1784.15,323.22 1785.03,323.77C1785.41,324.02 1798.98,324.09 1799.60,323.85ZM1493.38,342.36C1491.73,341.77 1490.76,341.22 1489.21,339.97C1488.34,339.27 1487.99,339.54 1488.04,340.85C1488.10,342.38 1488.04,342.41 1485.13,342.60C1481.01,342.86 1481.50,345.85 1481.50,320.29C1481.50,303.56 1481.57,298.28 1481.80,298.05C1482.19,297.66 1487.65,297.63 1487.89,298.02C1488.01,298.21 1488.27,309.35 1488.25,313.81C1488.25,314.41 1489.06,314.37 1489.63,313.75C1489.87,313.47 1490.60,312.96 1491.23,312.60C1497.71,308.92 1506.62,311.77 1509.99,318.62C1513.13,324.98 1512.46,333.07 1508.38,338.08C1504.91,342.33 1498.47,344.17 1493.38,342.36ZM1500.38,336.20C1506.58,333.00 1507.25,322.78 1501.53,318.67C1498.07,316.18 1493.47,316.71 1490.44,319.96C1488.33,322.22 1488.13,322.83 1488.13,327.12L1488.13,330.88 1488.98,332.34C1490.09,334.26 1491.29,335.41 1493.12,336.30C1495.13,337.28 1498.37,337.23 1500.38,336.20ZM1528.38,342.84C1521.22,341.05 1517.10,336.33 1516.28,329.00C1515.16,319.00 1522.09,311.01 1531.88,311.01C1542.19,311.01 1549.48,320.59 1547.01,330.90C1545.64,336.63 1542.46,340.19 1536.85,342.26C1535.40,342.80 1529.75,343.19 1528.38,342.84ZM1535.69,336.13C1544.33,331.42 1541.72,317.51 1532.11,317.05C1525.76,316.75 1521.62,322.60 1523.13,329.75C1523.88,333.33 1525.78,335.44 1529.50,336.85C1530.64,337.28 1534.39,336.85 1535.69,336.13ZM1615.25,342.77C1612.48,341.92 1610.45,339.89 1609.62,337.12C1609.21,335.79 1609.17,334.70 1609.22,327.07C1609.25,321.33 1609.18,318.34 1609.00,318.00C1608.77,317.57 1608.48,317.50 1606.99,317.50C1604.88,317.50 1604.75,317.31 1604.75,314.25C1604.75,311.74 1604.96,311.50 1607.15,311.50C1609.19,311.50 1609.22,311.43 1609.19,307.01C1609.18,304.43 1609.25,303.65 1609.53,303.48C1609.98,303.19 1615.02,303.19 1615.47,303.48C1615.84,303.71 1615.90,306.39 1615.60,308.94C1615.33,311.19 1615.72,311.50 1618.74,311.50C1622.42,311.50 1622.43,311.51 1622.55,314.17C1622.72,317.63 1622.82,317.53 1619.23,317.48C1617.28,317.46 1616.10,317.55 1615.92,317.73C1615.51,318.14 1615.54,333.56 1615.95,334.77C1616.55,336.51 1618.18,337.18 1620.77,336.76C1622.79,336.44 1622.87,336.53 1623.09,339.42C1623.29,341.98 1623.21,342.11 1621.23,342.63C1619.80,343.01 1616.31,343.09 1615.25,342.77ZM1637.12,342.76C1629.31,340.48 1625.49,335.16 1625.50,326.60C1625.52,319.08 1629.92,313.33 1637.09,311.47C1647.31,308.82 1656.54,316.26 1656.49,327.11C1656.46,334.44 1652.91,339.80 1646.50,342.20C1644.73,342.86 1638.71,343.22 1637.12,342.76ZM1645.06,336.12C1653.45,331.44 1650.46,317.00 1641.11,317.00C1631.44,317.00 1628.18,331.74 1636.87,336.13C1639.28,337.35 1642.87,337.35 1645.06,336.12ZM1705.62,342.83C1698.02,340.79 1693.52,334.86 1693.51,326.88C1693.49,312.83 1710.15,305.67 1720.03,315.48C1723.23,318.67 1724.52,321.95 1724.53,326.98C1724.56,334.57 1721.09,339.68 1714.12,342.32C1712.88,342.80 1706.84,343.16 1705.62,342.83ZM1712.88,336.25C1715.57,334.67 1716.77,333.22 1717.75,330.38C1719.01,326.72 1717.87,321.77 1715.23,319.39C1709.79,314.48 1701.42,317.53 1700.25,324.86C1699.44,329.98 1701.64,334.61 1705.75,336.41C1707.65,337.24 1711.33,337.16 1712.88,336.25ZM1753.12,342.74C1749.54,341.76 1747.30,340.16 1745.23,337.10C1739.70,328.90 1742.24,316.41 1750.21,312.61C1755.48,310.10 1760.13,310.49 1764.83,313.83C1765.97,314.64 1766.00,314.44 1766.00,306.16C1766.00,300.42 1766.08,298.27 1766.30,298.05C1766.74,297.61 1771.85,297.64 1772.22,298.08C1772.62,298.57 1772.63,341.67 1772.23,342.15C1772.02,342.41 1771.26,342.50 1769.36,342.50C1766.44,342.50 1765.85,342.23 1766.12,341.01C1766.33,340.09 1765.71,339.54 1765.03,340.03C1761.71,342.45 1760.08,343.01 1756.43,342.97C1755.03,342.96 1753.54,342.86 1753.12,342.74ZM1761.56,336.04C1764.90,334.13 1766.42,330.82 1766.21,325.95C1765.89,318.71 1758.29,314.61 1752.70,318.67C1746.50,323.18 1747.98,334.25 1755.12,336.80C1755.40,336.90 1756.64,336.95 1757.88,336.92C1759.90,336.86 1760.27,336.78 1761.56,336.04ZM1418.08,342.29C1417.62,341.83 1417.59,300.51 1418.05,300.05C1418.52,299.58 1423.24,299.65 1423.94,300.13L1424.49,300.52 1424.42,317.90C1424.36,332.30 1424.41,335.37 1424.69,335.77C1425.02,336.24 1425.38,336.26 1434.77,336.24C1440.13,336.24 1444.62,336.30 1444.76,336.38C1445.14,336.61 1445.07,342.24 1444.69,342.38C1443.82,342.70 1418.40,342.61 1418.08,342.29ZM1553.96,342.56C1553.27,342.42 1553.26,342.25 1553.24,326.94C1553.22,309.59 1552.83,311.38 1556.62,311.64C1559.57,311.84 1559.80,311.97 1559.59,313.28C1559.37,314.68 1560.03,314.87 1561.10,313.71C1563.20,311.41 1568.47,310.26 1570.26,311.71C1570.79,312.13 1570.79,312.17 1570.40,314.06C1570.18,315.12 1570.00,316.20 1570.00,316.47C1570.00,317.43 1569.35,317.75 1567.77,317.59C1564.58,317.25 1561.90,318.82 1560.47,321.86L1559.75,323.38 1559.75,332.80C1559.75,340.06 1559.68,342.27 1559.44,342.42C1559.13,342.62 1554.78,342.73 1553.96,342.56ZM1662.02,342.46C1661.77,342.37 1661.51,342.13 1661.43,341.93C1661.18,341.27 1661.23,312.39 1661.49,312.00C1661.68,311.71 1662.30,311.62 1664.18,311.60C1667.37,311.56 1667.70,311.69 1667.80,313.03C1667.89,314.30 1668.25,314.48 1669.04,313.68C1670.66,312.02 1672.72,311.26 1675.58,311.25C1678.17,311.25 1678.25,311.33 1678.25,314.08C1678.25,317.30 1678.15,317.41 1675.18,317.54C1671.91,317.68 1669.93,318.93 1668.46,321.75C1667.88,322.86 1667.87,323.02 1667.75,332.54C1667.68,337.86 1667.54,342.29 1667.44,342.39C1667.21,342.63 1662.62,342.68 1662.02,342.46ZM1682.53,342.41C1682.09,341.88 1682.10,312.00 1682.55,311.71C1683.11,311.36 1687.60,311.46 1688.11,311.84C1688.88,312.40 1688.92,341.88 1688.15,342.37C1687.40,342.85 1682.92,342.88 1682.53,342.41ZM1638.04,307.77C1637.66,307.54 1637.84,306.63 1638.39,306.00C1638.97,305.33 1640.96,302.28 1641.11,301.82C1641.19,301.58 1641.57,301.01 1641.94,300.57L1642.62,299.76 1645.54,299.73C1649.12,299.69 1649.61,299.89 1648.51,300.99C1648.24,301.26 1646.94,302.83 1645.62,304.49C1644.17,306.32 1643.01,307.54 1642.68,307.61C1641.43,307.86 1638.35,307.97 1638.04,307.77ZM1683.58,305.98C1681.82,305.11 1681.00,302.70 1681.87,301.00C1683.12,298.60 1686.28,298.10 1688.27,299.99C1689.23,300.90 1689.25,300.96 1689.25,302.66C1689.25,304.30 1689.20,304.45 1688.44,305.17C1686.87,306.66 1685.43,306.90 1683.58,305.98Z" fill="#094c92"/><path id="computational-intelligence" d="M1550.50,463.73C1549.74,463.60 1548.39,463.21 1547.50,462.86C1543.81,461.44 1542.89,460.05 1544.62,458.54C1545.70,457.59 1545.71,457.59 1546.78,458.37C1549.01,460.02 1550.17,460.38 1553.25,460.38C1557.68,460.38 1560.00,458.90 1560.00,456.09C1560.00,453.53 1558.38,452.48 1555.23,452.99C1552.32,453.46 1549.18,452.87 1547.28,451.49C1546.11,450.64 1545.75,450.14 1545.00,448.25C1544.70,447.49 1544.28,446.47 1544.08,445.97C1543.54,444.66 1543.58,441.35 1544.16,439.71C1545.67,435.46 1551.44,432.93 1556.37,434.36C1557.68,434.74 1557.89,434.75 1558.78,434.39C1560.22,433.82 1562.80,433.87 1563.36,434.48C1564.09,435.28 1563.77,436.07 1562.56,436.49C1561.32,436.92 1561.17,437.58 1562.01,438.77C1563.66,441.08 1563.12,445.42 1560.76,448.88C1560.00,450.00 1560.11,450.59 1561.31,451.62C1564.65,454.47 1564.23,459.35 1560.43,461.97C1558.26,463.46 1553.64,464.28 1550.50,463.73ZM1554.53,449.22C1558.56,447.87 1560.76,442.89 1558.67,439.84C1555.88,435.77 1549.67,436.07 1547.72,440.37C1545.69,444.82 1550.19,450.67 1554.53,449.22ZM1819.15,463.54C1818.96,463.23 1818.93,434.81 1819.12,434.51C1819.35,434.14 1822.14,434.18 1822.43,434.56C1822.57,434.73 1822.75,435.18 1822.85,435.56C1823.05,436.43 1823.31,436.43 1824.45,435.51C1828.20,432.50 1834.56,433.64 1837.81,437.90C1840.61,441.55 1840.80,447.78 1838.23,451.75C1835.37,456.17 1828.75,457.62 1824.73,454.71C1822.92,453.40 1822.88,453.49 1822.88,458.70C1822.88,462.49 1822.81,463.31 1822.50,463.50C1822.03,463.80 1819.33,463.83 1819.15,463.54ZM1832.14,452.47C1833.27,451.93 1834.39,450.74 1835.51,448.88C1836.48,447.27 1836.42,442.41 1835.42,440.60C1832.52,435.36 1824.50,436.09 1822.84,441.74C1822.39,443.25 1822.47,446.22 1823.00,448.32C1823.90,451.81 1828.80,454.04 1832.14,452.47ZM1468.38,456.27C1467.18,455.97 1466.11,455.33 1465.37,454.45C1464.05,452.88 1464.00,452.55 1464.00,445.15C1464.00,441.38 1463.93,438.11 1463.85,437.90C1463.75,437.63 1463.38,437.50 1462.72,437.50C1461.57,437.50 1460.75,436.82 1460.75,435.86C1460.75,434.78 1461.18,434.25 1462.08,434.25C1463.65,434.25 1464.00,433.74 1464.00,431.41C1464.00,429.00 1464.21,428.61 1465.67,428.38C1467.38,428.11 1467.85,428.78 1467.63,431.16C1467.37,433.97 1467.62,434.25 1470.48,434.25C1472.87,434.25 1473.14,434.38 1473.39,435.65C1473.66,437.02 1473.14,437.32 1470.55,437.27C1467.47,437.22 1467.56,437.03 1467.51,443.15C1467.48,448.04 1467.76,450.97 1468.37,451.90C1468.86,452.66 1470.62,453.06 1471.61,452.65C1472.58,452.25 1472.92,452.36 1473.38,453.26C1474.20,454.84 1473.58,455.66 1471.18,456.16C1469.46,456.52 1469.44,456.53 1468.38,456.27ZM1580.62,456.33C1577.01,455.51 1574.60,453.62 1572.97,450.31L1571.90,448.12 1571.90,445.12C1571.90,441.67 1572.26,440.57 1574.32,437.88C1576.43,435.11 1578.63,434.03 1582.18,434.01C1587.52,433.99 1591.12,437.23 1592.10,442.95C1592.58,445.72 1592.58,445.38 1592.11,445.86C1591.77,446.20 1590.69,446.25 1584.13,446.25C1579.95,446.25 1576.36,446.32 1576.15,446.40C1575.64,446.60 1575.62,447.97 1576.12,449.15C1577.66,452.85 1583.29,454.16 1587.15,451.71C1588.47,450.87 1589.02,450.90 1590.06,451.88C1590.91,452.67 1590.93,453.11 1590.14,453.84C1588.15,455.68 1583.34,456.94 1580.62,456.33ZM1587.92,443.21C1588.72,442.55 1587.90,440.12 1586.44,438.84C1583.50,436.26 1579.46,436.80 1576.96,440.11C1575.77,441.69 1575.56,442.49 1576.18,442.99C1576.77,443.47 1587.38,443.66 1587.92,443.21ZM1637.00,456.34C1632.23,455.74 1628.51,452.11 1627.74,447.30C1626.73,440.97 1629.79,435.78 1635.46,434.21C1638.91,433.25 1642.84,434.08 1645.23,436.27C1646.19,437.15 1646.19,437.35 1645.19,438.26C1644.19,439.18 1643.81,439.18 1642.35,438.26C1637.25,435.03 1631.14,438.60 1631.17,444.81C1631.21,451.61 1637.26,455.18 1642.68,451.61C1644.27,450.57 1644.47,450.56 1645.33,451.45C1646.34,452.51 1646.20,453.08 1644.64,454.26C1642.44,455.92 1639.69,456.67 1637.00,456.34ZM1905.12,456.33C1899.22,455.53 1896.83,448.28 1901.21,444.50C1903.10,442.87 1904.81,442.47 1909.58,442.52C1914.31,442.58 1914.56,442.47 1913.99,440.70C1913.50,439.20 1911.88,437.53 1910.62,437.24C1908.26,436.70 1905.69,437.05 1904.08,438.14C1902.92,438.93 1902.50,438.91 1901.65,438.03C1900.31,436.63 1901.15,435.69 1904.96,434.35C1910.09,432.54 1915.59,434.76 1916.96,439.18C1917.65,441.44 1917.90,455.09 1917.25,455.50C1916.36,456.07 1914.56,455.79 1914.00,455.00C1913.35,454.09 1913.01,454.07 1912.04,454.88C1910.74,455.97 1907.49,456.65 1905.12,456.33ZM1910.01,452.77C1912.64,451.77 1913.98,450.07 1913.99,447.74C1914.00,445.98 1913.68,445.72 1911.23,445.50C1905.72,445.00 1902.75,446.38 1902.75,449.43C1902.75,452.42 1906.45,454.12 1910.01,452.77ZM1489.75,455.91C1486.85,455.12 1484.30,453.06 1482.94,450.40C1482.17,448.91 1482.15,448.80 1482.14,445.37C1482.12,441.54 1482.30,440.83 1483.86,438.49C1489.31,430.32 1501.53,433.65 1502.37,443.53C1502.62,446.42 1503.14,446.25 1494.16,446.25C1486.09,446.25 1486.00,446.26 1486.00,447.49C1486.00,448.27 1487.56,450.92 1488.46,451.68C1490.59,453.47 1495.46,453.37 1497.60,451.49C1498.75,450.48 1499.51,450.53 1500.32,451.67C1501.13,452.81 1500.99,453.13 1499.10,454.38C1496.48,456.12 1492.75,456.73 1489.75,455.91ZM1498.11,442.69C1498.94,441.41 1497.65,439.03 1495.42,437.75C1492.40,436.02 1488.78,437.13 1486.90,440.37C1485.25,443.21 1485.32,443.25 1492.15,443.25C1497.67,443.25 1497.74,443.24 1498.11,442.69ZM1673.56,455.68C1667.64,453.20 1667.38,445.86 1673.12,443.20C1674.28,442.67 1674.71,442.62 1678.86,442.61C1683.23,442.60 1683.34,442.59 1683.58,442.05C1684.18,440.70 1682.54,438.09 1680.62,437.36C1678.92,436.71 1675.86,436.95 1674.52,437.83C1672.21,439.36 1669.62,437.54 1671.81,435.93C1675.41,433.28 1681.53,433.32 1684.59,436.00C1686.42,437.61 1687.06,439.38 1687.26,443.37C1687.49,447.99 1687.32,454.99 1686.97,455.42C1686.41,456.08 1684.65,455.83 1684.04,455.00C1683.37,454.10 1683.30,454.09 1682.21,454.84C1679.98,456.35 1676.07,456.73 1673.56,455.68ZM1680.48,452.64C1683.29,451.21 1684.71,447.99 1683.29,446.23C1682.51,445.27 1676.04,445.33 1674.55,446.31C1670.82,448.78 1672.76,453.23 1677.57,453.24C1678.88,453.25 1679.54,453.11 1680.48,452.64ZM1721.50,455.73C1716.61,454.02 1713.88,451.21 1712.14,446.09C1710.73,441.93 1711.57,436.09 1714.15,432.21C1718.97,424.96 1729.67,423.56 1735.94,429.35C1736.96,430.30 1736.96,430.45 1735.80,431.57C1734.65,432.70 1734.71,432.70 1733.38,431.62C1730.59,429.33 1725.78,428.57 1722.43,429.89C1719.80,430.92 1717.15,433.62 1716.18,436.25C1715.13,439.10 1715.17,443.41 1716.27,446.25C1718.86,452.97 1727.06,454.99 1733.09,450.39C1733.73,449.90 1734.52,449.50 1734.84,449.50C1735.63,449.50 1737.09,451.31 1736.87,452.02C1736.57,452.96 1732.84,455.03 1729.98,455.85C1727.95,456.43 1723.32,456.37 1721.50,455.73ZM1752.36,455.67C1747.40,453.79 1745.20,449.91 1745.58,443.71C1745.77,440.58 1746.39,439.11 1748.34,437.20C1754.76,430.87 1765.78,434.04 1767.01,442.57C1767.90,448.69 1765.97,452.75 1761.04,455.19C1758.54,456.43 1754.87,456.63 1752.36,455.67ZM1758.33,452.89C1764.69,450.62 1765.38,440.54 1759.38,437.63C1757.98,436.95 1754.48,436.93 1753.27,437.59C1748.19,440.36 1747.64,448.18 1752.26,451.94C1753.63,453.05 1756.58,453.51 1758.33,452.89ZM1853.83,455.64C1852.15,454.86 1850.66,453.34 1849.81,451.56L1849.13,450.12 1849.11,442.75C1849.08,434.19 1849.07,434.25 1850.59,434.25C1852.74,434.25 1852.70,434.12 1852.88,442.25C1853.06,450.20 1853.13,450.60 1854.50,451.85C1856.69,453.82 1860.07,453.56 1862.50,451.22C1864.26,449.54 1864.25,449.58 1864.25,441.60C1864.25,433.61 1864.12,434.12 1866.18,434.15C1868.10,434.19 1868.00,433.60 1868.00,444.98C1868.00,456.27 1868.08,455.75 1866.26,455.75C1864.94,455.74 1864.72,455.62 1864.31,454.69C1863.93,453.82 1863.69,453.83 1862.55,454.74C1860.49,456.39 1856.35,456.82 1853.83,455.64ZM1884.14,455.76C1881.15,454.21 1881.07,453.93 1880.92,443.31C1880.84,437.43 1880.85,437.49 1879.20,437.27C1876.94,436.96 1876.94,434.46 1879.20,434.30C1880.72,434.19 1881.10,433.51 1880.94,431.23C1880.79,429.13 1881.11,428.59 1882.64,428.36C1884.24,428.11 1884.50,428.54 1884.50,431.38C1884.50,434.21 1884.57,434.28 1887.41,434.22C1889.57,434.18 1890.00,434.45 1890.00,435.87C1890.00,437.06 1889.63,437.25 1887.34,437.25C1884.32,437.25 1884.48,436.87 1884.51,444.09C1884.52,449.58 1884.57,450.22 1885.02,451.16C1885.66,452.50 1886.83,453.12 1887.92,452.70C1888.89,452.34 1889.38,452.54 1889.88,453.51C1890.74,455.18 1889.86,455.92 1886.75,456.15C1885.45,456.24 1884.93,456.16 1884.14,455.76ZM1933.05,455.58C1928.78,453.83 1926.74,450.24 1926.70,444.35C1926.68,441.83 1926.71,441.68 1927.59,439.93C1929.65,435.84 1932.90,433.91 1937.75,433.90C1940.09,433.90 1941.58,434.42 1943.70,435.98C1945.15,437.05 1945.22,437.37 1944.23,438.39C1943.31,439.35 1942.54,439.48 1941.92,438.80C1940.74,437.50 1937.34,436.69 1935.33,437.23C1931.54,438.25 1929.16,443.89 1930.75,448.08C1932.52,452.77 1938.13,454.46 1941.77,451.40C1942.77,450.56 1943.49,450.58 1944.35,451.47C1945.31,452.48 1945.14,453.16 1943.62,454.30C1940.90,456.36 1936.30,456.91 1933.05,455.58ZM1976.15,455.85C1972.80,454.79 1970.49,452.37 1969.49,448.87C1967.49,441.84 1970.52,435.93 1977.00,434.24C1982.58,432.78 1988.69,435.91 1990.25,441.03C1992.06,446.98 1989.73,452.74 1984.50,455.22C1982.26,456.29 1978.45,456.58 1976.15,455.85ZM1982.35,452.56C1988.40,450.40 1988.69,440.09 1982.77,437.56C1981.36,436.95 1978.35,437.04 1976.94,437.72C1975.49,438.42 1974.13,439.91 1973.32,441.69C1972.36,443.78 1972.56,447.81 1973.71,449.61C1975.64,452.63 1978.97,453.77 1982.35,452.56ZM2032.47,455.90C2027.41,454.10 2025.81,448.04 2029.48,444.59C2031.39,442.78 2032.52,442.50 2037.57,442.54C2042.73,442.59 2042.76,442.58 2042.29,440.81C2041.35,437.27 2036.51,435.77 2033.02,437.94C2031.43,438.93 2031.03,438.95 2030.17,438.05C2029.31,437.15 2029.32,436.43 2030.19,435.85C2035.74,432.12 2042.79,433.43 2045.14,438.62C2045.92,440.35 2046.33,454.63 2045.63,455.34C2045.13,455.83 2043.14,455.90 2042.76,455.44C2042.62,455.27 2042.30,454.86 2042.05,454.54L2041.60,453.95 2040.80,454.62C2039.00,456.13 2034.88,456.77 2032.47,455.90ZM2037.79,452.99C2040.50,452.24 2042.25,450.22 2042.25,447.86C2042.25,445.54 2042.18,445.50 2037.94,445.50C2034.64,445.50 2034.35,445.54 2033.36,446.12C2028.65,448.88 2032.29,454.52 2037.79,452.99ZM1514.39,455.73C1512.40,455.39 1512.50,456.22 1512.50,440.39C1512.50,424.42 1512.35,425.50 1514.57,425.50C1515.46,425.50 1515.79,425.61 1515.99,425.98C1516.16,426.30 1516.25,430.91 1516.25,439.23C1516.25,451.73 1516.26,452.01 1516.78,453.08C1517.71,454.98 1516.68,456.13 1514.39,455.73ZM1418.17,455.58C1418.08,455.49 1418.00,448.91 1418.00,440.97C1418.00,426.94 1418.01,426.51 1418.48,426.26C1419.24,425.85 1421.14,425.94 1421.52,426.40C1421.92,426.88 1422.11,454.57 1421.72,455.31C1421.48,455.76 1418.56,455.98 1418.17,455.58ZM1433.99,455.36C1433.53,454.81 1433.54,435.18 1434.00,434.63C1434.20,434.38 1434.75,434.25 1435.54,434.25C1436.80,434.25 1436.83,434.27 1437.11,435.56C1437.29,436.41 1437.56,436.42 1438.59,435.63C1442.79,432.43 1448.66,433.60 1451.41,438.19L1452.12,439.38 1452.20,447.05C1452.29,455.79 1452.30,455.75 1450.63,455.75C1448.81,455.75 1448.85,455.90 1448.66,447.96C1448.50,441.26 1448.45,440.81 1447.92,439.75C1446.36,436.67 1442.03,436.08 1439.31,438.58C1437.31,440.42 1437.26,440.66 1437.26,448.39C1437.25,453.31 1437.17,455.23 1436.95,455.45C1436.51,455.89 1434.38,455.83 1433.99,455.36ZM1529.25,455.38C1528.88,454.93 1528.88,435.44 1529.25,434.74C1529.73,433.86 1532.49,434.04 1532.51,434.96C1532.64,442.31 1532.47,455.11 1532.23,455.39C1531.83,455.88 1529.66,455.87 1529.25,455.38ZM1601.22,455.34C1600.86,454.90 1600.66,436.37 1601.00,435.00C1601.14,434.45 1601.31,434.37 1602.46,434.30C1603.71,434.23 1603.77,434.26 1604.28,435.11C1604.92,436.20 1604.97,436.20 1606.49,435.15C1610.40,432.46 1615.98,433.78 1618.45,437.98L1619.12,439.12 1619.21,447.03C1619.30,456.01 1619.35,455.75 1617.35,455.75C1615.78,455.75 1615.75,455.58 1615.75,447.71C1615.75,440.95 1615.75,440.94 1615.12,439.78C1613.26,436.37 1608.26,436.08 1605.77,439.23C1604.66,440.62 1604.51,441.75 1604.51,448.67C1604.50,454.90 1604.49,454.98 1603.94,455.36C1603.21,455.88 1601.66,455.86 1601.22,455.34ZM1655.91,455.29C1655.24,454.54 1655.32,434.87 1656.00,434.50C1656.85,434.05 1658.70,434.19 1658.99,434.73C1659.16,435.04 1659.25,438.73 1659.25,445.00C1659.25,451.27 1659.16,454.96 1658.99,455.27C1658.63,455.94 1656.51,455.95 1655.91,455.29ZM1776.65,455.36C1776.31,455.02 1776.26,453.76 1776.26,445.66C1776.27,440.53 1776.20,436.15 1776.11,435.92C1775.75,435.00 1776.65,434.25 1778.11,434.25C1779.38,434.25 1779.48,434.29 1779.98,435.15L1780.51,436.05 1781.41,435.36C1784.52,432.99 1788.67,433.23 1791.83,435.96C1793.31,437.25 1793.31,437.25 1794.76,435.89C1799.16,431.77 1806.91,434.10 1808.25,439.95C1808.76,442.16 1808.42,455.01 1807.84,455.43C1807.18,455.91 1805.56,455.84 1805.29,455.31C1805.17,455.07 1805.00,451.68 1804.91,447.77C1804.75,440.87 1804.73,440.63 1804.15,439.64C1803.13,437.91 1802.19,437.39 1799.86,437.29C1797.49,437.19 1796.28,437.87 1794.92,440.09L1794.17,441.31 1794.08,448.33C1793.99,456.06 1794.07,455.74 1792.33,455.75C1790.48,455.75 1790.50,455.82 1790.50,448.42C1790.50,441.27 1790.38,440.45 1789.16,438.82C1788.12,437.44 1787.43,437.18 1785.07,437.29C1782.75,437.39 1781.73,438.01 1780.67,439.97L1780.00,441.19 1780.00,448.17C1780.00,453.27 1779.92,455.23 1779.70,455.45C1779.26,455.89 1777.11,455.83 1776.65,455.36ZM1955.89,455.36C1955.59,455.05 1955.50,454.36 1955.48,452.17C1955.47,450.63 1955.42,446.17 1955.38,442.25C1955.34,438.18 1955.40,434.94 1955.54,434.69C1955.81,434.16 1958.21,434.06 1958.70,434.55C1958.92,434.77 1959.00,437.44 1959.00,445.00C1959.00,452.56 1958.92,455.23 1958.70,455.45C1958.26,455.89 1956.36,455.82 1955.89,455.36ZM2000.27,455.30C1999.96,454.71 1999.88,435.07 2000.19,434.59C2000.36,434.33 2001.75,434.13 2002.81,434.22C2003.04,434.23 2003.41,434.59 2003.62,435.00C2004.11,435.94 2004.46,435.94 2005.81,435.00C2010.03,432.06 2016.05,434.01 2018.05,438.96C2018.60,440.32 2018.62,440.64 2018.61,447.72C2018.60,455.89 2018.63,455.75 2016.88,455.75C2015.17,455.75 2015.20,455.87 2015.07,447.86C2014.94,439.63 2014.84,439.23 2012.69,437.81C2011.16,436.79 2007.83,436.80 2006.30,437.81C2004.11,439.26 2003.88,439.96 2003.86,445.11C2003.83,452.49 2003.75,454.86 2003.52,455.23C2003.12,455.86 2000.60,455.91 2000.27,455.30ZM2058.05,455.49C2056.78,454.98 2056.75,454.58 2056.75,439.90L2056.75,426.28 2057.31,425.89C2057.96,425.43 2059.53,425.38 2059.95,425.80C2060.18,426.03 2060.25,429.28 2060.25,438.90C2060.25,451.11 2060.27,451.74 2060.74,452.79C2061.37,454.17 2061.37,454.63 2060.75,455.25C2060.22,455.78 2059.05,455.89 2058.05,455.49ZM1576.62,431.24C1576.41,430.90 1576.69,429.75 1576.98,429.75C1577.10,429.75 1577.84,428.93 1578.63,427.94C1580.67,425.36 1580.83,425.25 1582.44,425.25C1583.98,425.25 1583.71,425.03 1586.74,428.71C1588.00,430.24 1588.20,430.62 1587.99,431.02C1587.45,432.02 1585.74,431.39 1583.87,429.49C1582.37,427.97 1582.41,427.97 1580.74,429.45C1578.45,431.47 1577.12,432.05 1576.62,431.24ZM1656.25,429.93C1654.33,428.95 1655.01,426.30 1657.29,425.87C1658.56,425.64 1659.25,426.33 1659.25,427.85C1659.25,429.65 1657.75,430.69 1656.25,429.93ZM1529.50,429.50C1528.35,428.35 1529.27,425.75 1530.83,425.75C1532.55,425.75 1533.49,428.29 1532.20,429.49C1531.49,430.15 1530.16,430.16 1529.50,429.50ZM1955.80,429.68C1954.46,428.07 1955.28,425.78 1957.20,425.76C1958.97,425.74 1959.88,427.88 1958.73,429.34C1958.15,430.08 1956.30,430.29 1955.80,429.68Z" fill="#00aff1"/></g></svg>
